<svg width="88" height="88" viewBox="0 0 88 88" fill="none" xmlns="http://www.w3.org/2000/svg">
<rect x="0.5" y="0.5" width="87" height="87" rx="43.5" fill="#5151E5" fill-opacity="0.1"/>
<rect x="0.5" y="0.5" width="87" height="87" rx="43.5" stroke="#5151E5" stroke-dasharray="5 5"/>
<path d="M42.8334 61.2083C43.1428 61.2083 43.4395 61.0854 43.6583 60.8666C43.8771 60.6478 44 60.351 44 60.0416V58.588C44.0047 55.3143 39.3637 52.75 34.6667 52.75C29.9697 52.75 25.3334 55.3143 25.3334 58.588V60.0416C25.3334 60.351 25.4563 60.6478 25.6751 60.8666C25.8939 61.0854 26.1906 61.2083 26.5 61.2083H42.8334ZM38.8714 44.9963C38.8714 45.5485 38.7626 46.0952 38.5513 46.6053C38.34 47.1155 38.0303 47.579 37.6399 47.9694C37.2494 48.3599 36.7859 48.6696 36.2758 48.8809C35.7656 49.0922 35.2189 49.201 34.6667 49.201C34.1145 49.201 33.5678 49.0922 33.0577 48.8809C32.5475 48.6696 32.084 48.3599 31.6936 47.9694C31.3031 47.579 30.9934 47.1155 30.7821 46.6053C30.5708 46.0952 30.462 45.5485 30.462 44.9963C30.462 43.8811 30.905 42.8117 31.6936 42.0231C32.4821 41.2346 33.5516 40.7916 34.6667 40.7916C35.7819 40.7916 36.8513 41.2346 37.6399 42.0231C38.4284 42.8117 38.8714 43.8811 38.8714 44.9963Z" stroke="#5151E5" stroke-width="1.5" stroke-linecap="round" stroke-linejoin="round"/>
<path d="M61.5 60.9167C61.8094 60.9167 62.1062 60.7938 62.325 60.575C62.5438 60.3562 62.6667 60.0594 62.6667 59.75V58.2963C62.6713 55.0227 58.0303 52.4583 53.3333 52.4583C48.6363 52.4583 44 55.0227 44 58.2963V59.75C44 60.0594 44.1229 60.3562 44.3417 60.575C44.5605 60.7938 44.8572 60.9167 45.1667 60.9167H61.5ZM57.538 44.7047C57.538 45.2568 57.4292 45.8036 57.2179 46.3137C57.0066 46.8239 56.6969 47.2874 56.3065 47.6778C55.916 48.0683 55.4525 48.378 54.9424 48.5893C54.4323 48.8006 53.8855 48.9093 53.3333 48.9093C52.7812 48.9093 52.2344 48.8006 51.7243 48.5893C51.2141 48.378 50.7506 48.0683 50.3602 47.6778C49.9697 47.2874 49.66 46.8239 49.4487 46.3137C49.2374 45.8036 49.1287 45.2568 49.1287 44.7047C49.1287 43.5895 49.5717 42.52 50.3602 41.7315C51.1487 40.943 52.2182 40.5 53.3333 40.5C54.4485 40.5 55.518 40.943 56.3065 41.7315C57.095 42.52 57.538 43.5895 57.538 44.7047Z" stroke="#5151E5" stroke-width="1.5" stroke-linecap="round" stroke-linejoin="round"/>
<path d="M52.1667 52.1667C50.4167 50.4167 48.697 48.9583 44 48.9583C39.303 48.9583 37 51 35.25 52.75M48.2047 41.2047C48.2047 41.7568 48.0959 42.3036 47.8846 42.8137C47.6733 43.3239 47.3636 43.7874 46.9731 44.1778C46.5827 44.5683 46.1192 44.878 45.6091 45.0893C45.0989 45.3006 44.5522 45.4093 44 45.4093C43.4478 45.4093 42.9011 45.3006 42.3909 45.0893C41.8808 44.878 41.4173 44.5683 41.0269 44.1778C40.6364 43.7874 40.3267 43.3239 40.1154 42.8137C39.9041 42.3036 39.7953 41.7568 39.7953 41.2047C39.7953 40.0895 40.2383 39.02 41.0269 38.2315C41.8154 37.443 42.8849 37 44 37C45.1151 37 46.1846 37.443 46.9731 38.2315C47.7617 39.02 48.2047 40.0895 48.2047 41.2047Z" stroke="#5151E5" stroke-width="1.5" stroke-linecap="round" stroke-linejoin="round"/>
<path d="M61.5008 36C62.7212 35.9998 63.9068 35.6676 64.871 35.0557C65.8353 34.4437 66.5234 33.5867 66.827 32.6197C67.1307 31.6526 67.0326 30.6304 66.5482 29.714C66.0639 28.7975 65.2208 28.0389 64.1516 27.5575C63.0825 27.0762 61.8481 26.8994 60.6426 27.055C59.4372 27.2107 58.3293 27.6899 57.4933 28.4173C56.6573 29.1446 56.1407 30.0788 56.0249 31.0728C55.909 32.0667 56.2004 33.064 56.8533 33.9075L56.0008 36L58.5583 35.3025C59.4381 35.7593 60.4588 36.0013 61.5008 36Z" stroke="#5151E5" stroke-width="1.5" stroke-linecap="round" stroke-linejoin="round"/>
<path d="M59 32L61 33.5L64.5 30" stroke="#5151E5"/>
<path d="M27.4992 36C26.2788 35.9998 25.0932 35.6676 24.129 35.0557C23.1647 34.4437 22.4766 33.5867 22.173 32.6197C21.8693 31.6526 21.9674 30.6304 22.4518 29.714C22.9361 28.7975 23.7792 28.0389 24.8484 27.5575C25.9175 27.0762 27.1519 26.8994 28.3574 27.055C29.5628 27.2107 30.6707 27.6899 31.5067 28.4173C32.3427 29.1446 32.8593 30.0788 32.9751 31.0728C33.091 32.0667 32.7996 33.064 32.1467 33.9075L32.9992 36L30.4417 35.3025C29.5619 35.7593 28.5412 36.0013 27.4992 36Z" stroke="#5151E5" stroke-width="1.5" stroke-linecap="round" stroke-linejoin="round"/>
<path d="M25.5 29.5L29.5 33.5M25.5 33.5L29.5 29.5" stroke="#5151E5"/>
</svg>
