<svg width="88" height="88" viewBox="0 0 88 88" fill="none" xmlns="http://www.w3.org/2000/svg">
<rect x="0.5" y="0.5" width="87" height="87" rx="43.5" fill="#5151E5" fill-opacity="0.1"/>
<rect x="0.5" y="0.5" width="87" height="87" rx="43.5" stroke="#5151E5" stroke-dasharray="5 5"/>
<path d="M40.9233 47.6479C40.8904 47.5736 40.0932 45.8051 38.321 44.0329C35.9596 41.6715 32.977 40.4235 29.6942 40.4235C26.4114 40.4235 23.4288 41.6715 21.0674 44.0329C19.2951 45.8051 18.4942 47.5764 18.465 47.6479C18.4222 47.7442 18.4001 47.8484 18.4001 47.9538C18.4001 48.0592 18.4222 48.1634 18.465 48.2597C18.498 48.334 19.2951 50.1016 21.0674 51.8738C23.4288 54.2343 26.4114 55.4822 29.6942 55.4822C32.977 55.4822 35.9596 54.2343 38.321 51.8738C40.0932 50.1016 40.8904 48.334 40.9233 48.2597C40.9661 48.1634 40.9882 48.0592 40.9882 47.9538C40.9882 47.8484 40.9661 47.7442 40.9233 47.6479ZM29.6942 53.9764C26.7972 53.9764 24.2664 52.9232 22.1714 50.847C21.3117 49.9921 20.5804 49.0173 20.0001 47.9529C20.5802 46.8883 21.3116 45.9135 22.1714 45.0587C24.2664 42.9825 26.7972 41.9293 29.6942 41.9293C32.5911 41.9293 35.1219 42.9825 37.217 45.0587C38.0783 45.9133 38.8112 46.8881 39.393 47.9529C38.7144 49.2197 35.7582 53.9764 29.6942 53.9764ZM29.6942 43.4352C28.8007 43.4352 27.9272 43.7002 27.1843 44.1966C26.4414 44.693 25.8623 45.3985 25.5204 46.224C25.1785 47.0495 25.089 47.9579 25.2633 48.8342C25.4376 49.7105 25.8679 50.5155 26.4997 51.1473C27.1315 51.7791 27.9365 52.2094 28.8128 52.3837C29.6892 52.558 30.5975 52.4685 31.423 52.1266C32.2485 51.7847 32.954 51.2056 33.4504 50.4627C33.9468 49.7198 34.2118 48.8464 34.2118 47.9529C34.2106 46.7551 33.7342 45.6067 32.8872 44.7598C32.0403 43.9128 30.8919 43.4365 29.6942 43.4352ZM29.6942 50.9646C29.0985 50.9646 28.5162 50.788 28.0209 50.457C27.5256 50.1261 27.1396 49.6557 26.9117 49.1054C26.6837 48.5551 26.6241 47.9495 26.7403 47.3653C26.8565 46.7811 27.1433 46.2444 27.5645 45.8232C27.9857 45.402 28.5224 45.1152 29.1066 44.999C29.6908 44.8828 30.2964 44.9424 30.8467 45.1704C31.397 45.3983 31.8674 45.7843 32.1983 46.2796C32.5293 46.7749 32.7059 47.3572 32.7059 47.9529C32.7059 48.7516 32.3886 49.5177 31.8238 50.0825C31.259 50.6473 30.4929 50.9646 29.6942 50.9646Z" fill="#5151E5"/>
<path d="M57.2235 31.0117H48.0612C46.0424 31.0117 44.3342 32.3926 44.0236 34.2338C43.8683 35.7681 44.4895 36.9956 45.5765 37.7628V42.0589C45.5765 42.6726 46.353 43.1329 46.9742 42.6726L51.0118 38.6834H57.0682C58.7764 38.6834 60.4846 37.6093 60.9505 35.9216C61.727 33.3132 59.7082 31.0117 57.2235 31.0117ZM54.1176 41.752H63.2799C65.2987 41.752 67.0069 43.1329 67.3175 44.9741C67.4728 46.5084 66.8516 47.7359 65.7646 48.5031V52.7992C65.7646 53.4129 64.9881 53.8732 64.3669 53.4129L60.3293 49.4237H54.2729C52.5647 49.4237 50.8565 48.3496 50.3906 46.6619C49.6141 44.0535 51.633 41.752 54.1176 41.752Z" stroke="#5151E5" stroke-width="1.5"/>
</svg>
