<svg width="88" height="88" viewBox="0 0 88 88" fill="none" xmlns="http://www.w3.org/2000/svg">
<rect x="0.5" y="0.5" width="87" height="87" rx="43.5" fill="#5151E5" fill-opacity="0.1"/>
<rect x="0.5" y="0.5" width="87" height="87" rx="43.5" stroke="#5151E5" stroke-dasharray="5 5"/>
<path d="M55.875 44.125C55.875 38.916 55.7114 35.2749 55.5567 32.9947C55.435 31.1929 54.126 29.7875 52.3756 29.6299C50.4582 29.4561 47.5459 29.2865 43.5 29.2865C39.4541 29.2865 36.5425 29.4561 34.6244 29.6299C32.874 29.7875 31.565 31.1929 31.4433 32.9947C31.2886 35.2749 31.125 38.916 31.125 44.125M55.875 44.125C55.875 49.3341 55.7114 52.9752 55.5567 55.2554C55.435 57.0572 54.126 58.4626 52.3756 58.6202C50.4575 58.794 47.5459 58.9636 43.5 58.9636C39.4541 58.9636 36.5418 58.794 34.6244 58.6202C32.874 58.4626 31.565 57.0572 31.4433 55.2554C31.2886 52.9752 31.125 49.3341 31.125 44.125M55.875 44.125H31.125" stroke="#5151E5" stroke-width="1.5" stroke-linecap="round" stroke-linejoin="round"/>
<path d="M55.4969 55.7259C52.6939 52.8501 50.7621 51.2673 49.5541 50.4116C48.5779 49.7191 47.3734 49.8322 46.4638 50.6165C45.403 51.5301 43.6932 53.1115 41.0938 55.7839C40.1109 56.7907 39.1444 57.8143 38.1946 58.854M35.9375 39.1788H51.0625M35.9375 34.5859H44.1875M39.375 50.4844C39.375 51.0466 39.1577 51.5858 38.7709 51.9833C38.3841 52.3808 37.8595 52.6042 37.3125 52.6042C36.7655 52.6042 36.2409 52.3808 35.8541 51.9833C35.4673 51.5858 35.25 51.0466 35.25 50.4844C35.25 49.9222 35.4673 49.383 35.8541 48.9855C36.2409 48.5879 36.7655 48.3646 37.3125 48.3646C37.8595 48.3646 38.3841 48.5879 38.7709 48.9855C39.1577 49.383 39.375 49.9222 39.375 50.4844Z" stroke="#5151E5" stroke-width="1.5" stroke-linecap="round" stroke-linejoin="round"/>
<path d="M27 28L60 60.25" stroke="#5151E5" stroke-width="1.5"/>
<path d="M60 28L27 60.25" stroke="#5151E5" stroke-width="1.5"/>
</svg>
