<svg width="64" height="64" viewBox="0 0 64 64" fill="none" xmlns="http://www.w3.org/2000/svg">
<path d="M43.9573 31.9361L60.36 17.6854V46.0241L43.9573 31.9361ZM22.8213 34.3494L28.5813 39.3494C29.4853 40.1174 30.664 40.5814 31.952 40.5814H31.9973H32.032C33.3227 40.5814 34.5013 40.1147 35.416 39.3414L35.408 39.3467L41.168 34.3467L58.6773 49.3841H5.32L22.8213 34.3494ZM5.296 14.3067H58.7093L33.0533 36.5894C32.7661 36.8199 32.4082 36.9442 32.04 36.9414H32.0027H31.968C31.5985 36.944 31.2396 36.8187 30.952 36.5868L30.9547 36.5894L5.296 14.3067ZM3.64 17.6827L20.04 31.9334L3.64 46.0134V17.6827ZM61.24 11.1734C60.6 10.8534 59.848 10.6667 59.0507 10.6667H4.95733C4.18477 10.6698 3.42313 10.8495 2.73067 11.1921L2.76 11.1787C1.93298 11.588 1.23652 12.2199 0.748945 13.0033C0.261367 13.7868 0.00199829 14.6907 0 15.6134L0 48.0721C0.00141174 49.3857 0.523873 50.6451 1.45275 51.574C2.38162 52.5029 3.64104 53.0253 4.95467 53.0267H59.0427C60.3563 53.0253 61.6157 52.5029 62.5446 51.574C63.4735 50.6451 63.9959 49.3857 63.9973 48.0721V15.6134C63.9973 13.6747 62.88 11.9947 61.2533 11.1867L61.224 11.1734H61.24Z" fill="#F2F2F2"/>
</svg>
